<svg width="200" height="30" viewBox="0 0 200 30" fill="none" xmlns="http://www.w3.org/2000/svg">
<g clip-path="url(#clip0)">
<path d="M90.3884 26.5504C89.0345 24.1621 89.9555 20.4168 92.7569 17.6151C95.9384 14.4341 100.337 13.6759 102.583 15.9214C102.585 15.9242 102.588 15.9274 102.591 15.9304C102.142 17.2383 100.71 20.0203 96.42 21.5245C92.4894 22.9031 90.9735 25.0955 90.3884 26.5504ZM101.26 19.5906C100.234 20.6175 98.776 21.6253 96.7102 22.3503C92.5176 23.8203 91.3463 26.2275 91.0194 27.3931C91.0352 27.4089 91.048 27.4255 91.0629 27.4401C93.3084 29.6857 97.7075 28.9273 100.888 25.7464C103.719 22.9159 104.629 19.1225 103.214 16.7383C102.874 17.5324 102.281 18.5697 101.26 19.5906ZM92.5846 9.2452C97.1138 9.6421 99.564 7.69641 100.512 6.69018C100.51 6.68618 100.509 6.68167 100.508 6.67805C99.387 3.70713 95.0663 2.58599 90.8574 4.17405C87.1507 5.57274 84.7681 8.60592 85.0179 11.3398C86.1506 10.2555 88.4351 8.88223 92.5846 9.2452ZM94.9169 14.9334C98.6624 13.5205 101.054 10.4387 100.747 7.6831C100.11 8.26655 99.1423 8.96808 97.7917 9.47781C96.4339 9.99005 94.6897 10.3081 92.5089 10.1171C88.0834 9.72905 86.0238 11.4401 85.2453 12.3682C85.2532 12.3888 85.2587 12.4091 85.2659 12.4285C86.387 15.4002 90.7078 16.5218 94.9169 14.9334ZM108.025 8.73791C110.742 5.09207 110.373 1.9848 110.015 0.649692C110.011 0.649248 110.007 0.647695 110.003 0.646808C106.886 0.0399204 103.662 3.12782 102.802 7.54313C102.045 11.4328 103.375 15.0528 105.832 16.2767C105.505 14.7432 105.537 12.0782 108.025 8.73791ZM110.984 0.971325C111.145 1.82058 111.234 3.0121 110.958 4.42862C110.681 5.85356 110.035 7.50468 108.727 9.26028C106.072 12.8223 106.446 15.4731 106.827 16.623C106.849 16.6275 106.869 16.6331 106.889 16.6375C110.006 17.2444 113.23 14.157 114.09 9.74125C114.855 5.81186 113.489 2.15715 110.984 0.971325Z" fill="black"/>
</g>
<line y1="14.5" x2="60" y2="14.5" stroke="black"/>
<line x1="140" y1="14.5" x2="200" y2="14.5" stroke="black"/>
<defs>
<clipPath id="clip0">
<rect width="29.302" height="29.302" fill="white" transform="translate(85)"/>
</clipPath>
</defs>
</svg>
