<svg width="112" height="43" viewBox="0 0 112 43" fill="none" xmlns="http://www.w3.org/2000/svg">
<g filter="url(#filter0_d)">
<g clip-path="url(#clip0)">
<path d="M4.05415 26.9849C4.60045 31.5459 10.0971 34.985 16.8399 34.985C22.9019 34.985 28.0514 32.1874 29.3643 28.1815L29.3655 28.1795C29.5709 27.5611 29.6769 26.9145 29.6798 26.263C29.6767 26.0667 29.663 25.8709 29.6388 25.6763L29.6319 25.6141V25.6138C29.3931 23.8875 28.5379 22.3061 27.2236 21.1614C28.72 21.82 30.3324 22.1736 31.967 22.2024C33.3241 22.2278 34.6635 21.8915 35.8475 21.2283L35.8481 21.2275C36.3026 20.9693 36.7216 20.653 37.094 20.2862C37.3742 20.001 37.6244 19.688 37.8415 19.3523L37.8421 19.3515C40.3037 15.6474 38.7286 9.42234 34.1779 4.87184C29.9639 0.657892 24.1703 -1.05624 20.4007 0.796676C19.7945 1.08992 19.2408 1.4809 18.7618 1.95397C18.5871 2.13293 18.4241 2.32272 18.2733 2.52249L18.273 2.52278C15.4689 6.13371 16.9653 12.6554 21.6799 17.37C22.1459 17.8346 22.636 18.2743 23.1478 18.6875C21.1336 17.9212 18.9952 17.5325 16.8399 17.541C10.8198 17.541 5.54087 20.4327 4.28783 24.4167C4.0986 25.0137 4.00142 25.6364 4 26.263C4.00342 26.5044 4.02137 26.7452 4.05386 26.9846L4.05415 26.9849ZM16.8399 33.8177C11.1626 33.8177 6.31657 31.1222 5.35193 27.5608C5.37501 27.5631 5.39866 27.5656 5.42118 27.5679C5.62978 27.5916 5.82841 27.6175 6.01393 27.6472C6.041 27.6514 6.06608 27.6563 6.09287 27.6608C6.26613 27.6896 6.43142 27.7207 6.59072 27.7537C6.61722 27.7591 6.64487 27.7643 6.67137 27.77C6.84178 27.8065 7.00622 27.8446 7.1678 27.8843C7.20285 27.8928 7.23762 27.9016 7.2721 27.9102C7.4277 27.9492 7.58158 27.9886 7.7369 28.029C9.24157 28.4559 10.801 28.6585 12.3646 28.63C13.9266 28.6588 15.4843 28.4556 16.9867 28.0276C18.3927 27.6238 19.8515 27.4334 21.314 27.4628C22.7771 27.4334 24.2365 27.6238 25.6431 28.0273C25.7893 28.0652 25.9375 28.1034 26.0879 28.1413C26.1227 28.1501 26.1575 28.1587 26.1925 28.1675C26.3521 28.2071 26.516 28.2459 26.6864 28.2832C26.7072 28.2878 26.7294 28.2921 26.7505 28.2966C26.9081 28.3302 27.0725 28.3624 27.2441 28.3929C27.2746 28.3983 27.3037 28.404 27.3344 28.4092C27.5205 28.4411 27.7172 28.4699 27.9249 28.4961C27.9434 28.4987 27.9588 28.5018 27.9776 28.5041C26.4692 31.6217 21.9484 33.8177 16.8399 33.8177V33.8177ZM33.3526 5.69741C37.1761 9.52123 38.7768 14.7531 37.2465 18.0329C37.2308 18.0147 37.2149 17.9964 37.1997 17.9782C37.045 17.7961 36.9017 17.6203 36.774 17.4533C36.7626 17.4384 36.7529 17.4245 36.7418 17.4099C36.6201 17.2492 36.509 17.0942 36.4049 16.9432C36.3881 16.9186 36.3705 16.8936 36.3539 16.8693C36.2479 16.7129 36.1488 16.5599 36.0533 16.4083C36.0351 16.3792 36.0171 16.3504 35.9989 16.3213C35.9068 16.1737 35.8168 16.0267 35.7264 15.8782C34.9447 14.5246 33.967 13.2943 32.8254 12.2271C31.7248 11.1194 30.4655 10.1812 29.0893 9.44371C27.7995 8.75493 26.6206 7.87691 25.5915 6.83846C24.522 5.84161 23.6078 4.69002 22.8794 3.42245C22.8053 3.30019 22.7298 3.17651 22.6528 3.05198L22.5939 2.95708C22.5112 2.82428 22.426 2.68977 22.3348 2.55156C22.3248 2.53617 22.3137 2.52021 22.3035 2.50482C22.2211 2.38057 22.1333 2.25319 22.0401 2.12239C22.0185 2.09218 21.9977 2.06226 21.9755 2.03148C21.8714 1.88785 21.7603 1.73995 21.6395 1.58663C21.6315 1.57609 21.6249 1.56668 21.6167 1.55642C24.9517 0.434471 29.7425 2.08705 33.3526 5.69741V5.69741ZM19.5871 2.77926C19.8675 2.5014 20.1812 2.25917 20.5209 2.05855C20.5309 2.07024 20.5392 2.08135 20.5489 2.09303C20.6777 2.24977 20.7948 2.39967 20.9039 2.54501C20.9216 2.56866 20.9407 2.59317 20.9581 2.61654C21.0672 2.76472 21.1675 2.90807 21.2624 3.04827C21.2813 3.0762 21.3001 3.10384 21.3183 3.13149C21.4109 3.27056 21.4995 3.40763 21.5842 3.54328C21.5996 3.56779 21.6147 3.59229 21.6298 3.6168C21.7147 3.75388 21.7979 3.89009 21.8817 4.02831C22.662 5.38052 23.6383 6.60991 24.7788 7.67629C25.8793 8.78371 27.1387 9.72185 28.5148 10.4597C29.8046 11.1482 30.9836 12.0262 32.0126 13.0649C33.0835 14.0629 33.9992 15.2156 34.7293 16.4846C34.7894 16.5832 34.8498 16.6824 34.9111 16.7824C34.9319 16.8161 34.9536 16.8505 34.9747 16.8844C35.0177 16.9537 35.0607 17.0229 35.1052 17.0931C35.1314 17.1344 35.159 17.1763 35.1858 17.2179C35.2277 17.2831 35.2702 17.3484 35.3146 17.4151C35.3443 17.4595 35.3753 17.5051 35.4064 17.5504C35.4506 17.6154 35.4962 17.6812 35.5432 17.7479C35.5774 17.7961 35.6127 17.8451 35.6483 17.8944C35.6968 17.9608 35.7467 18.0283 35.7985 18.0967C35.8376 18.1483 35.8775 18.2008 35.9185 18.2535C35.9724 18.3227 36.0294 18.3937 36.0872 18.4652C36.1314 18.5199 36.1755 18.5746 36.2226 18.6308C36.2835 18.7043 36.3491 18.7801 36.4149 18.8562C36.4656 18.9146 36.515 18.9725 36.5682 19.0323C36.5813 19.0471 36.5925 19.0608 36.6059 19.0756C36.5016 19.2107 36.389 19.3395 36.2687 19.4609C36.0801 19.6479 35.8749 19.8177 35.6557 19.9685L35.6355 19.9462C35.5982 19.9038 35.5648 19.8636 35.5292 19.8223C35.4617 19.7439 35.3944 19.6661 35.3323 19.5909C35.2938 19.5441 35.2579 19.4991 35.2212 19.4535C35.1673 19.3863 35.114 19.3196 35.0639 19.2546C35.0279 19.2081 34.9937 19.1628 34.9595 19.1172C34.9131 19.0554 34.8678 18.9941 34.8242 18.9337C34.792 18.8895 34.7606 18.8457 34.7301 18.8021C34.6874 18.7414 34.6458 18.6812 34.6056 18.6217C34.578 18.5809 34.55 18.5402 34.5233 18.4997C34.4825 18.4379 34.4426 18.3766 34.4033 18.3156C34.3793 18.2786 34.3551 18.2412 34.3317 18.2042C34.2896 18.1378 34.2485 18.0717 34.2078 18.0058C34.1884 17.9748 34.1687 17.9434 34.1496 17.9121C34.0918 17.818 34.0342 17.724 33.977 17.6297C33.1944 16.276 32.2164 15.0455 31.0745 13.978C29.9739 12.8703 28.7146 11.9321 27.3384 11.1946C26.0486 10.5061 24.8697 9.62781 23.8406 8.58936C22.7703 7.59165 21.8552 6.43949 21.1257 5.17135C21.0356 5.02345 20.9436 4.87355 20.8495 4.72194C20.8296 4.69002 20.8099 4.65811 20.7897 4.6259C20.6936 4.47316 20.5916 4.31699 20.4836 4.15683C20.4611 4.12321 20.438 4.08958 20.4146 4.05567C20.3021 3.8918 20.181 3.7231 20.0482 3.54727C20.0259 3.5182 20.002 3.48799 19.9795 3.45864C19.8356 3.27141 19.6814 3.07877 19.5064 2.87415L19.5019 2.86845C19.5301 2.83768 19.5583 2.80804 19.5871 2.77926V2.77926ZM22.5052 16.5448C18.4603 12.4995 16.9322 7.09693 18.7926 3.84108C18.8065 3.85818 18.8213 3.87556 18.835 3.89237C18.9604 4.04683 19.0775 4.19616 19.1844 4.34007C19.2046 4.36715 19.2229 4.39336 19.2425 4.42015C19.3389 4.55209 19.4295 4.6809 19.5144 4.80658C19.5295 4.82938 19.5457 4.85217 19.5606 4.87469C19.6543 5.01518 19.7427 5.15311 19.8284 5.29018C19.8473 5.32011 19.8655 5.34974 19.884 5.37938C19.9661 5.5119 20.047 5.64412 20.1282 5.77778C20.9096 7.13028 21.8868 8.36023 23.0279 9.42719C24.1285 10.5346 25.3878 11.4727 26.7639 12.2103C28.0537 12.8991 29.2327 13.7771 30.2617 14.8155C31.3329 15.8141 32.2491 16.9671 32.9798 18.2361C33.0696 18.3837 33.1613 18.5328 33.2551 18.6838C33.277 18.7191 33.2987 18.7542 33.3212 18.7895C33.419 18.9445 33.5218 19.103 33.6321 19.2657C33.6544 19.2985 33.678 19.3321 33.7008 19.3655C33.8151 19.531 33.9362 19.7009 34.0716 19.879L34.0889 19.9029C34.2263 20.0827 34.3819 20.2731 34.5478 20.4695C34.5691 20.4945 34.5848 20.5168 34.6067 20.5424C31.2939 21.9134 26.2504 20.2891 22.5052 16.5448V16.5448ZM16.8399 18.7083C22.5676 18.7083 27.4233 21.4332 28.3433 25.0316C28.3205 25.0291 28.2971 25.0268 28.2749 25.0245C28.0628 25.0009 27.8611 24.9746 27.673 24.9447C27.6479 24.9407 27.6245 24.9362 27.5997 24.9322C27.4268 24.9037 27.2618 24.8726 27.103 24.8398C27.0714 24.8333 27.0386 24.8273 27.0076 24.8205C26.8403 24.7848 26.6787 24.7472 26.52 24.7085C26.4784 24.6982 26.4365 24.688 26.3952 24.6774C26.2438 24.6395 26.0936 24.6013 25.9423 24.562C24.4377 24.1351 22.878 23.9325 21.314 23.961C19.7521 23.9322 18.1944 24.1351 16.692 24.5634C15.2859 24.9669 13.8271 25.1573 12.3646 25.1282C10.9013 25.1573 9.44191 24.9669 8.03498 24.5637C7.8905 24.5261 7.7443 24.4885 7.59612 24.4511C7.55565 24.4409 7.51518 24.4309 7.47415 24.4206C7.31627 24.3816 7.1544 24.3434 6.9857 24.3067C6.95919 24.3007 6.93127 24.2953 6.90419 24.2896C6.74831 24.2565 6.58559 24.2249 6.41603 24.1949C6.38468 24.1895 6.35476 24.1835 6.32284 24.1781C6.13561 24.1465 5.93698 24.118 5.72838 24.0918C5.70729 24.0892 5.68962 24.0858 5.66825 24.0832C7.145 20.9303 11.6815 18.7083 16.8399 18.7083V18.7083ZM5.28211 25.2149L5.30405 25.2174C5.52975 25.2405 5.73807 25.2685 5.9367 25.2987C5.96491 25.3032 5.99483 25.3069 6.02276 25.3115C6.21427 25.3423 6.39437 25.3759 6.56849 25.4118C6.60354 25.4189 6.63888 25.426 6.67336 25.4337C6.8415 25.4696 7.00422 25.507 7.16352 25.546C7.20028 25.5551 7.23648 25.5643 7.27295 25.5734C7.42941 25.6127 7.58472 25.6526 7.74088 25.6934C9.24385 26.1211 10.8021 26.324 12.3646 26.2955C13.9266 26.3243 15.4843 26.1211 16.9867 25.6931C18.3927 25.2893 19.8515 25.0989 21.314 25.1282C22.7791 25.0992 24.2402 25.2893 25.6491 25.6919C25.7525 25.7187 25.8565 25.7455 25.9614 25.7723C26.0013 25.7826 26.0421 25.7925 26.0823 25.8025C26.1541 25.8207 26.2262 25.8387 26.2997 25.8564C26.3424 25.8666 26.3866 25.8769 26.4302 25.8871C26.5029 25.9042 26.5764 25.921 26.6513 25.9376C26.6978 25.9478 26.7451 25.9578 26.7927 25.9678C26.8674 25.9837 26.9437 25.9991 27.0215 26.0142C27.0717 26.0239 27.1224 26.0336 27.1737 26.043C27.2541 26.0576 27.337 26.0718 27.4208 26.0855C27.4732 26.094 27.5254 26.1026 27.5792 26.1108C27.6699 26.1248 27.7645 26.1373 27.8602 26.1502C27.9118 26.157 27.9622 26.1641 28.0158 26.1704C28.1275 26.1838 28.2447 26.1958 28.3638 26.2075C28.4068 26.2114 28.447 26.2163 28.4912 26.2203L28.5122 26.2226C28.5125 26.2359 28.5125 26.2496 28.5125 26.263C28.5114 26.6375 28.4669 27.0105 28.38 27.3747L28.3564 27.3719C28.1346 27.3488 27.93 27.3211 27.7345 27.2912C27.7043 27.2864 27.6727 27.2824 27.6431 27.2775C27.4547 27.247 27.2772 27.2137 27.1059 27.1784C27.0688 27.171 27.0321 27.1633 26.9956 27.1556C26.8303 27.1199 26.6696 27.0829 26.5126 27.0444C26.4747 27.035 26.437 27.0253 26.3994 27.0159C26.245 26.9772 26.0919 26.9378 25.9375 26.8977C24.4345 26.4696 22.8766 26.2667 21.314 26.2955C19.7521 26.2667 18.1944 26.4696 16.692 26.8979C15.2859 27.3015 13.8271 27.4918 12.3646 27.4628C10.8998 27.4916 9.43877 27.3015 8.03014 26.8991C7.92441 26.8717 7.81811 26.8441 7.71096 26.8167C7.67933 26.8088 7.64656 26.8008 7.61436 26.7925C7.53713 26.7731 7.45933 26.7538 7.37982 26.7344C7.33593 26.7238 7.29062 26.7136 7.24588 26.703C7.17578 26.6865 7.1051 26.6703 7.033 26.6543C6.98342 26.6432 6.93241 26.6326 6.8814 26.6218C6.81101 26.607 6.73919 26.5925 6.66624 26.5782C6.61152 26.5674 6.55624 26.5571 6.49981 26.5469C6.42629 26.5335 6.35049 26.5206 6.27383 26.5078C6.21455 26.4981 6.15528 26.4882 6.09372 26.479C6.01478 26.4668 5.93214 26.4557 5.84921 26.4448C5.78538 26.4363 5.7224 26.4275 5.65628 26.4195C5.56481 26.4086 5.46848 26.399 5.37216 26.3893C5.30947 26.383 5.24934 26.3759 5.18408 26.3702L5.16926 26.3687C5.16812 26.3334 5.16726 26.2981 5.16726 26.263C5.16783 25.9105 5.2063 25.5591 5.28211 25.2149V25.2149Z" fill="white"/>
<path d="M10.6884 30.1179C10.4484 29.9939 10.2205 29.8637 10.0045 29.7272C9.73173 29.5565 9.37238 29.6389 9.2011 29.911C9.02983 30.1832 9.11105 30.5428 9.38263 30.7149C9.62543 30.868 9.88163 31.0144 10.1515 31.1546C10.4379 31.3028 10.7901 31.1908 10.9383 30.9047C11.0865 30.6183 10.9748 30.2661 10.6884 30.1179V30.1179Z" fill="white"/>
<path d="M24.4496 29.1678C22.6255 30.6394 19.8518 31.4832 16.8399 31.4832C15.3176 31.4955 13.8029 31.2678 12.3515 30.8084C12.0455 30.7092 11.7169 30.8768 11.6171 31.1828C11.5174 31.4889 11.6844 31.8178 11.9902 31.9181C13.5581 32.4157 15.1947 32.6627 16.8399 32.6505C20.1137 32.6505 23.1544 31.7123 25.1826 30.0763C25.4334 29.8737 25.4727 29.5063 25.2704 29.2556C25.068 29.0045 24.7004 28.9652 24.4496 29.1678V29.1678Z" fill="white"/>
<path d="M20.6894 9.21288C20.625 8.98291 20.5702 8.75578 20.5255 8.53179C20.4622 8.21575 20.1547 8.01085 19.8387 8.07412C19.5227 8.13738 19.3178 8.44487 19.381 8.76091C19.4315 9.01255 19.493 9.26789 19.5654 9.5275C19.6523 9.83784 19.9744 10.0188 20.2847 9.93217C20.595 9.84525 20.7763 9.52322 20.6894 9.21288Z" fill="white"/>
<path d="M32.1331 19.2919C32.1531 18.9702 31.9083 18.6932 31.5866 18.6735C29.1865 18.5256 26.3393 17.0774 24.1561 14.8939C23.0569 13.8081 22.1422 12.5503 21.4482 11.1698C21.3046 10.8817 20.9552 10.7643 20.6668 10.9071C20.3784 11.0499 20.2602 11.3992 20.4024 11.6879C21.1527 13.182 22.1419 14.5437 23.3308 15.7192C25.7428 18.1315 28.8023 19.6715 31.5147 19.8385C31.527 19.8394 31.5393 19.8397 31.5512 19.8397C31.8593 19.8391 32.1141 19.5994 32.1331 19.2919Z" fill="white"/>
</g>
</g>
<path d="M38.876 35.18C37.988 35.18 37.24 34.82 36.632 34.1C36.024 33.38 35.72 32.332 35.72 30.956C35.72 29.94 35.884 29.016 36.212 28.184C36.54 27.344 37.052 26.66 37.748 26.132C38.452 25.596 39.244 25.328 40.124 25.328C41.004 25.328 41.644 25.544 42.044 25.976C42.444 26.4 42.644 26.888 42.644 27.44C42.644 27.992 42.504 28.436 42.224 28.772C41.944 29.1 41.58 29.264 41.132 29.264C40.988 29.264 40.812 29.232 40.604 29.168C40.788 28.976 40.948 28.708 41.084 28.364C41.228 28.012 41.3 27.66 41.3 27.308C41.3 26.956 41.204 26.656 41.012 26.408C40.828 26.152 40.532 26.024 40.124 26.024C39.508 26.024 38.956 26.28 38.468 26.792C37.988 27.296 37.624 27.92 37.376 28.664C37.136 29.4 37.016 30.16 37.016 30.944C37.016 32.048 37.228 32.876 37.652 33.428C38.076 33.972 38.624 34.244 39.296 34.244C39.744 34.244 40.204 34.108 40.676 33.836C41.148 33.564 41.536 33.172 41.84 32.66C41.96 32.66 42.072 32.696 42.176 32.768C42.28 32.84 42.332 32.912 42.332 32.984C41.884 33.832 41.32 34.42 40.64 34.748C40.048 35.036 39.46 35.18 38.876 35.18ZM48.4519 31.064C48.4519 30.28 48.3519 29.72 48.1519 29.384C47.9599 29.04 47.6799 28.868 47.3119 28.868C46.9519 28.868 46.5879 29.048 46.2199 29.408C45.8519 29.76 45.5599 30.2 45.3439 30.728C45.1359 31.248 45.0319 31.792 45.0319 32.36C45.0319 32.92 45.1399 33.408 45.3559 33.824C45.5719 34.232 45.8999 34.436 46.3399 34.436C46.9639 34.436 47.4719 34.068 47.8639 33.332C48.2559 32.596 48.4519 31.84 48.4519 31.064ZM44.9719 30.596C45.2759 29.732 45.6839 29.104 46.1959 28.712C46.7159 28.312 47.2399 28.112 47.7679 28.112C48.3039 28.112 48.7479 28.348 49.0999 28.82C49.4519 29.284 49.6279 29.916 49.6279 30.716C49.6279 31.596 49.4599 32.412 49.1239 33.164C48.7479 33.996 48.2039 34.576 47.4919 34.904C47.1079 35.088 46.6839 35.18 46.2199 35.18C45.5719 35.18 45.0039 34.912 44.5159 34.376C44.0279 33.832 43.7839 33.06 43.7839 32.06C43.7839 31.052 43.9999 30.18 44.4319 29.444C44.8639 28.708 45.4519 28.196 46.1959 27.908C46.3559 27.908 46.4359 27.988 46.4359 28.148C45.6439 28.668 45.1559 29.484 44.9719 30.596ZM55.1622 28.424C55.1622 28.76 55.0982 28.992 54.9702 29.12C54.8422 29.248 54.6542 29.312 54.4062 29.312H53.3982C53.1262 31.04 52.9902 32.684 52.9902 34.244C52.9902 34.716 52.9982 35.056 53.0142 35.264C53.0382 35.48 53.0942 35.844 53.1822 36.356C52.2782 35.996 51.8262 35.172 51.8262 33.884C51.8262 32.436 51.9742 30.936 52.2702 29.384C51.8702 29.448 51.4582 29.568 51.0342 29.744C51.0182 29.616 51.0102 29.5 51.0102 29.396C51.0102 29.012 51.1342 28.756 51.3822 28.628C51.6382 28.492 52.0022 28.424 52.4742 28.424C53.1622 25.608 54.2222 24.2 55.6542 24.2C56.1262 24.2 56.5142 24.332 56.8182 24.596C57.1222 24.86 57.2742 25.176 57.2742 25.544C57.2742 25.912 57.1662 26.224 56.9502 26.48C56.7342 26.728 56.4502 26.852 56.0982 26.852C55.9542 26.852 55.8222 26.824 55.7022 26.768C55.7982 26.68 55.8942 26.536 55.9902 26.336C56.0942 26.128 56.1462 25.916 56.1462 25.7C56.1462 25.476 56.0862 25.288 55.9662 25.136C55.8542 24.984 55.7062 24.908 55.5222 24.908C54.6742 24.908 54.0142 26.092 53.5422 28.46C54.3182 28.46 54.8502 28.344 55.1382 28.112C55.1542 28.224 55.1622 28.328 55.1622 28.424ZM60.0606 28.424C60.0606 28.76 59.9966 28.992 59.8686 29.12C59.7406 29.248 59.5526 29.312 59.3046 29.312H58.2966C58.0246 31.04 57.8886 32.684 57.8886 34.244C57.8886 34.716 57.8966 35.056 57.9126 35.264C57.9366 35.48 57.9926 35.844 58.0806 36.356C57.1766 35.996 56.7246 35.172 56.7246 33.884C56.7246 32.436 56.8726 30.936 57.1686 29.384C56.7686 29.448 56.3566 29.568 55.9326 29.744C55.9166 29.616 55.9086 29.5 55.9086 29.396C55.9086 29.012 56.0326 28.756 56.2806 28.628C56.5366 28.492 56.9006 28.424 57.3726 28.424C58.0606 25.608 59.1206 24.2 60.5526 24.2C61.0246 24.2 61.4126 24.332 61.7166 24.596C62.0206 24.86 62.1726 25.176 62.1726 25.544C62.1726 25.912 62.0646 26.224 61.8486 26.48C61.6326 26.728 61.3486 26.852 60.9966 26.852C60.8526 26.852 60.7206 26.824 60.6006 26.768C60.6966 26.68 60.7926 26.536 60.8886 26.336C60.9926 26.128 61.0446 25.916 61.0446 25.7C61.0446 25.476 60.9846 25.288 60.8646 25.136C60.7526 24.984 60.6046 24.908 60.4206 24.908C59.5726 24.908 58.9126 26.092 58.4406 28.46C59.2166 28.46 59.7486 28.344 60.0366 28.112C60.0526 28.224 60.0606 28.328 60.0606 28.424ZM63.8398 28.7C63.3598 28.7 62.9518 28.976 62.6158 29.528C62.2878 30.08 62.0678 30.728 61.9558 31.472H62.2918C62.7158 31.472 63.0838 31.412 63.3958 31.292C63.7078 31.172 63.9478 31.016 64.1158 30.824C64.4358 30.456 64.5958 30.04 64.5958 29.576C64.5958 29.312 64.5318 29.1 64.4038 28.94C64.2838 28.78 64.0958 28.7 63.8398 28.7ZM65.5318 33.56C65.1638 34.16 64.7598 34.58 64.3198 34.82C63.8798 35.06 63.3678 35.18 62.7838 35.18C62.2078 35.18 61.7038 34.924 61.2718 34.412C60.8398 33.9 60.6238 33.18 60.6238 32.252C60.6238 31.196 60.9078 30.252 61.4758 29.42C61.7558 29.02 62.1198 28.696 62.5678 28.448C63.0238 28.2 63.5238 28.076 64.0678 28.076C65.2678 28.076 65.8678 28.656 65.8678 29.816C65.8678 30.512 65.5958 31.06 65.0518 31.46C64.5158 31.852 63.8918 32.048 63.1798 32.048C62.7078 32.048 62.2838 32.004 61.9078 31.916C61.8998 31.996 61.8958 32.12 61.8958 32.288C61.8958 33.704 62.3158 34.412 63.1558 34.412C63.9478 34.412 64.5918 34.02 65.0878 33.236C65.3838 33.276 65.5318 33.384 65.5318 33.56ZM70.3437 28.7C69.8637 28.7 69.4557 28.976 69.1197 29.528C68.7917 30.08 68.5717 30.728 68.4597 31.472H68.7957C69.2197 31.472 69.5877 31.412 69.8997 31.292C70.2117 31.172 70.4517 31.016 70.6197 30.824C70.9397 30.456 71.0997 30.04 71.0997 29.576C71.0997 29.312 71.0357 29.1 70.9077 28.94C70.7877 28.78 70.5997 28.7 70.3437 28.7ZM72.0357 33.56C71.6677 34.16 71.2637 34.58 70.8237 34.82C70.3837 35.06 69.8717 35.18 69.2877 35.18C68.7117 35.18 68.2077 34.924 67.7757 34.412C67.3437 33.9 67.1277 33.18 67.1277 32.252C67.1277 31.196 67.4117 30.252 67.9797 29.42C68.2597 29.02 68.6237 28.696 69.0717 28.448C69.5277 28.2 70.0277 28.076 70.5717 28.076C71.7717 28.076 72.3717 28.656 72.3717 29.816C72.3717 30.512 72.0997 31.06 71.5557 31.46C71.0197 31.852 70.3957 32.048 69.6837 32.048C69.2117 32.048 68.7877 32.004 68.4117 31.916C68.4037 31.996 68.3997 32.12 68.3997 32.288C68.3997 33.704 68.8197 34.412 69.6597 34.412C70.4517 34.412 71.0957 34.02 71.5917 33.236C71.8877 33.276 72.0357 33.384 72.0357 33.56ZM79.1885 31.292C79.4525 30.388 79.8565 29.628 80.4005 29.012C80.9525 28.388 81.4685 28.076 81.9485 28.076C82.4285 28.076 82.7685 28.224 82.9685 28.52C83.1685 28.808 83.2685 29.204 83.2685 29.708C83.2685 30.204 83.1885 30.904 83.0285 31.808C82.8765 32.712 82.8005 33.372 82.8005 33.788C82.8005 34.196 82.8525 34.496 82.9565 34.688C83.0605 34.872 83.2365 35.032 83.4845 35.168C83.3805 35.176 83.2325 35.18 83.0405 35.18C82.5285 35.18 82.1485 35.076 81.9005 34.868C81.6605 34.652 81.5405 34.288 81.5405 33.776C81.5405 33.48 81.6205 32.884 81.7805 31.988C81.9405 31.084 82.0205 30.42 82.0205 29.996C82.0205 29.468 81.8365 29.204 81.4685 29.204C81.2525 29.204 81.0125 29.32 80.7485 29.552C80.4845 29.776 80.2285 30.084 79.9805 30.476C79.7405 30.86 79.5365 31.352 79.3685 31.952C79.2085 32.544 79.1285 33.132 79.1285 33.716C79.1285 34.292 79.1525 34.72 79.2005 35C79.0085 35.016 78.9005 35.024 78.8765 35.024C78.5005 35.024 78.2205 34.944 78.0365 34.784C77.8605 34.624 77.7725 34.376 77.7725 34.04C77.7725 33.696 77.8445 33.04 77.9885 32.072C78.4125 29.096 78.6245 26.836 78.6245 25.292C78.6245 24.596 78.5765 24.128 78.4805 23.888C78.9445 24.056 79.2685 24.304 79.4525 24.632C79.6445 24.96 79.7405 25.412 79.7405 25.988C79.7405 26.388 79.6605 27.228 79.5005 28.508C79.3485 29.788 79.2445 30.716 79.1885 31.292ZM89.7136 31.064C89.7136 30.28 89.6136 29.72 89.4136 29.384C89.2216 29.04 88.9416 28.868 88.5736 28.868C88.2136 28.868 87.8496 29.048 87.4816 29.408C87.1136 29.76 86.8216 30.2 86.6056 30.728C86.3976 31.248 86.2936 31.792 86.2936 32.36C86.2936 32.92 86.4016 33.408 86.6176 33.824C86.8336 34.232 87.1616 34.436 87.6016 34.436C88.2256 34.436 88.7336 34.068 89.1256 33.332C89.5176 32.596 89.7136 31.84 89.7136 31.064ZM86.2336 30.596C86.5376 29.732 86.9456 29.104 87.4576 28.712C87.9776 28.312 88.5016 28.112 89.0296 28.112C89.5656 28.112 90.0096 28.348 90.3616 28.82C90.7136 29.284 90.8896 29.916 90.8896 30.716C90.8896 31.596 90.7216 32.412 90.3856 33.164C90.0096 33.996 89.4656 34.576 88.7536 34.904C88.3696 35.088 87.9456 35.18 87.4816 35.18C86.8336 35.18 86.2656 34.912 85.7776 34.376C85.2896 33.832 85.0456 33.06 85.0456 32.06C85.0456 31.052 85.2616 30.18 85.6936 29.444C86.1256 28.708 86.7136 28.196 87.4576 27.908C87.6176 27.908 87.6976 27.988 87.6976 28.148C86.9056 28.668 86.4176 29.484 86.2336 30.596ZM96.9519 28.052C97.6399 28.052 97.9839 28.408 97.9839 29.12C97.9839 29.248 97.9079 29.812 97.7559 30.812C97.6039 31.804 97.5279 32.656 97.5279 33.368C97.5279 34.08 97.6039 34.708 97.7559 35.252C97.2679 35.06 96.9279 34.788 96.7359 34.436C96.5519 34.084 96.4599 33.648 96.4599 33.128C96.4599 32.928 96.5039 32.476 96.5919 31.772C96.3519 32.684 95.9799 33.452 95.4759 34.076C94.9719 34.692 94.5039 35 94.0719 35C93.1599 35 92.7039 34.336 92.7039 33.008C92.7039 32.568 92.7679 31.956 92.8959 31.172C93.0319 30.38 93.0999 29.78 93.0999 29.372C93.0999 28.964 93.0439 28.552 92.9319 28.136C93.4439 28.136 93.8279 28.224 94.0839 28.4C94.3399 28.576 94.4679 28.916 94.4679 29.42C94.4679 29.692 94.3839 30.252 94.2159 31.1C94.0479 31.948 93.9639 32.576 93.9639 32.984C93.9639 33.576 94.1479 33.872 94.5159 33.872C94.8199 33.872 95.1359 33.636 95.4639 33.164C95.7999 32.684 96.0799 32.064 96.3039 31.304C96.5279 30.544 96.6399 29.792 96.6399 29.048C96.6399 28.712 96.6159 28.388 96.5679 28.076C96.7439 28.06 96.8719 28.052 96.9519 28.052ZM102.345 28.664C102.081 28.664 101.841 28.748 101.625 28.916C101.417 29.084 101.313 29.316 101.313 29.612C101.313 29.9 101.409 30.172 101.601 30.428C101.801 30.684 102.041 30.912 102.321 31.112C102.601 31.312 102.885 31.516 103.173 31.724C103.845 32.22 104.181 32.752 104.181 33.32C104.181 33.888 103.953 34.352 103.497 34.712C103.041 35.064 102.457 35.24 101.745 35.24C101.041 35.24 100.493 35.1 100.101 34.82C99.7172 34.54 99.5252 34.212 99.5252 33.836C99.5252 33.452 99.6212 33.152 99.8132 32.936C100.005 32.72 100.237 32.612 100.509 32.612C100.653 32.612 100.789 32.644 100.917 32.708C100.741 32.932 100.653 33.196 100.653 33.5C100.653 33.804 100.745 34.06 100.929 34.268C101.121 34.476 101.381 34.58 101.709 34.58C102.045 34.58 102.329 34.496 102.561 34.328C102.793 34.152 102.909 33.932 102.909 33.668C102.909 33.404 102.841 33.172 102.705 32.972C102.569 32.772 102.397 32.6 102.189 32.456C101.989 32.312 101.769 32.152 101.529 31.976C101.289 31.8 101.065 31.628 100.857 31.46C100.657 31.284 100.489 31.068 100.353 30.812C100.217 30.548 100.149 30.26 100.149 29.948C100.149 29.38 100.365 28.916 100.797 28.556C101.229 28.188 101.773 28.004 102.429 28.004C103.085 28.004 103.565 28.14 103.869 28.412C104.173 28.684 104.325 28.992 104.325 29.336C104.325 29.672 104.241 29.952 104.073 30.176C103.905 30.392 103.689 30.5 103.425 30.5C103.297 30.5 103.149 30.464 102.981 30.392C103.189 30.136 103.293 29.86 103.293 29.564C103.293 29.268 103.201 29.044 103.017 28.892C102.841 28.74 102.617 28.664 102.345 28.664ZM108.969 28.7C108.489 28.7 108.081 28.976 107.745 29.528C107.417 30.08 107.197 30.728 107.085 31.472H107.421C107.845 31.472 108.213 31.412 108.525 31.292C108.837 31.172 109.077 31.016 109.245 30.824C109.565 30.456 109.725 30.04 109.725 29.576C109.725 29.312 109.661 29.1 109.533 28.94C109.413 28.78 109.225 28.7 108.969 28.7ZM110.661 33.56C110.293 34.16 109.889 34.58 109.449 34.82C109.009 35.06 108.497 35.18 107.913 35.18C107.337 35.18 106.833 34.924 106.401 34.412C105.969 33.9 105.753 33.18 105.753 32.252C105.753 31.196 106.037 30.252 106.605 29.42C106.885 29.02 107.249 28.696 107.697 28.448C108.153 28.2 108.653 28.076 109.197 28.076C110.397 28.076 110.997 28.656 110.997 29.816C110.997 30.512 110.725 31.06 110.181 31.46C109.645 31.852 109.021 32.048 108.309 32.048C107.837 32.048 107.413 32.004 107.037 31.916C107.029 31.996 107.025 32.12 107.025 32.288C107.025 33.704 107.445 34.412 108.285 34.412C109.077 34.412 109.721 34.02 110.217 33.236C110.513 33.276 110.661 33.384 110.661 33.56Z" fill="white"/>
<defs>
<filter id="filter0_d" x="0" y="0" width="43" height="43" filterUnits="userSpaceOnUse" color-interpolation-filters="sRGB">
<feFlood flood-opacity="0" result="BackgroundImageFix"/>
<feColorMatrix in="SourceAlpha" type="matrix" values="0 0 0 0 0 0 0 0 0 0 0 0 0 0 0 0 0 0 127 0"/>
<feOffset dy="4"/>
<feGaussianBlur stdDeviation="2"/>
<feColorMatrix type="matrix" values="0 0 0 0 0 0 0 0 0 0 0 0 0 0 0 0 0 0 0.25 0"/>
<feBlend mode="normal" in2="BackgroundImageFix" result="effect1_dropShadow"/>
<feBlend mode="normal" in="SourceGraphic" in2="effect1_dropShadow" result="shape"/>
</filter>
<clipPath id="clip0">
<rect width="35" height="35" fill="white" transform="translate(4)"/>
</clipPath>
</defs>
</svg>
