<svg width="108" height="40" viewBox="0 0 108 40" fill="none" xmlns="http://www.w3.org/2000/svg">
<g clip-path="url(#clip0)">
<path d="M0.0541455 26.9849C0.600445 31.5459 6.09707 34.985 12.8399 34.985C18.9019 34.985 24.0514 32.1874 25.3643 28.1815L25.3655 28.1795C25.5709 27.5611 25.6769 26.9145 25.6798 26.263C25.6767 26.0667 25.663 25.8709 25.6388 25.6763L25.6319 25.6141V25.6139C25.3931 23.8875 24.5379 22.3061 23.2236 21.1614C24.72 21.82 26.3324 22.1736 27.967 22.2024C29.3241 22.2278 30.6635 21.8915 31.8475 21.2284L31.8481 21.2275C32.3026 20.9693 32.7216 20.653 33.094 20.2862C33.3742 20.001 33.6244 19.6881 33.8415 19.3524L33.8421 19.3515C36.3037 15.6474 34.7286 9.42236 30.1779 4.87185C25.9639 0.657908 20.1703 -1.05623 16.4007 0.796691C15.7945 1.08993 15.2408 1.48092 14.7618 1.95398C14.5871 2.13295 14.4241 2.32274 14.2733 2.52251L14.273 2.52279C11.4689 6.13373 12.9653 12.6554 17.6799 17.3701C18.1459 17.8346 18.636 18.2743 19.1478 18.6875C17.1336 17.9212 14.9952 17.5325 12.8399 17.541C6.81977 17.541 1.54087 20.4327 0.287826 24.4167C0.0986018 25.0137 0.00142488 25.6364 0 26.263C0.00341972 26.5044 0.0213732 26.7452 0.0538605 26.9846L0.0541455 26.9849ZM12.8399 33.8178C7.1626 33.8178 2.31657 31.1222 1.35193 27.5608C1.37501 27.5631 1.39866 27.5657 1.42118 27.5679C1.62978 27.5916 1.82841 27.6175 2.01393 27.6472C2.041 27.6514 2.06608 27.6563 2.09287 27.6608C2.26613 27.6896 2.43142 27.7207 2.59072 27.7537C2.61722 27.7592 2.64487 27.7643 2.67137 27.77C2.84178 27.8065 3.00622 27.8447 3.1678 27.8843C3.20285 27.8928 3.23762 27.9017 3.2721 27.9102C3.4277 27.9492 3.58158 27.9886 3.7369 28.029C5.24157 28.4559 6.80096 28.6585 8.36463 28.6301C9.92658 28.6588 11.4843 28.4556 12.9867 28.0276C14.3927 27.6238 15.8515 27.4334 17.314 27.4628C18.7771 27.4334 20.2365 27.6238 21.6431 28.0273C21.7893 28.0652 21.9375 28.1034 22.0879 28.1413C22.1227 28.1502 22.1575 28.1587 22.1925 28.1675C22.3521 28.2071 22.516 28.2459 22.6864 28.2832C22.7072 28.2878 22.7294 28.2921 22.7505 28.2966C22.9081 28.3303 23.0725 28.3625 23.2441 28.393C23.2746 28.3984 23.3037 28.4041 23.3344 28.4092C23.5205 28.4411 23.7172 28.4699 23.9249 28.4961C23.9434 28.4987 23.9588 28.5018 23.9776 28.5041C22.4692 31.6217 17.9484 33.8178 12.8399 33.8178ZM29.3526 5.69743C33.1761 9.52124 34.7768 14.7531 33.2465 18.0329C33.2308 18.0147 33.2149 17.9964 33.1997 17.9782C33.045 17.7961 32.9017 17.6203 32.774 17.4533C32.7626 17.4385 32.7529 17.4245 32.7418 17.41C32.6201 17.2492 32.509 17.0942 32.4049 16.9432C32.3881 16.9187 32.3705 16.8936 32.3539 16.8694C32.2479 16.7129 32.1488 16.5599 32.0533 16.4083C32.035 16.3792 32.0171 16.3504 31.9989 16.3214C31.9068 16.1737 31.8168 16.0267 31.7264 15.8782C30.9447 14.5246 29.967 13.2943 28.8254 12.2271C27.7248 11.1194 26.4655 10.1812 25.0893 9.44373C23.7995 8.75494 22.6206 7.87693 21.5915 6.83848C20.522 5.84163 19.6078 4.69004 18.8794 3.42246C18.8053 3.30021 18.7298 3.17653 18.6528 3.05199L18.5939 2.9571C18.5112 2.8243 18.426 2.68979 18.3348 2.55158C18.3248 2.53619 18.3137 2.52023 18.3035 2.50484C18.2211 2.38059 18.1333 2.25321 18.0401 2.1224C18.0185 2.09219 17.9977 2.06227 17.9755 2.03149C17.8714 1.88787 17.7603 1.73996 17.6395 1.58665C17.6315 1.5761 17.6249 1.5667 17.6167 1.55644C20.9517 0.434486 25.7425 2.08706 29.3526 5.69743ZM15.5871 2.77927C15.8675 2.50142 16.1812 2.25919 16.5209 2.05857C16.5309 2.07025 16.5392 2.08136 16.5489 2.09305C16.6777 2.24979 16.7948 2.39968 16.9039 2.54502C16.9216 2.56867 16.9407 2.59318 16.9581 2.61655C17.0672 2.76474 17.1675 2.90808 17.2624 3.04829C17.2813 3.07622 17.3001 3.10386 17.3183 3.1315C17.4109 3.27057 17.4995 3.40764 17.5842 3.54329C17.5996 3.5678 17.6147 3.59231 17.6298 3.61682C17.7147 3.75389 17.7979 3.89011 17.8817 4.02832C18.662 5.38054 19.6383 6.60992 20.7788 7.67631C21.8793 8.78372 23.1387 9.72187 24.5148 10.4597C25.8046 11.1482 26.9836 12.0262 28.0126 13.0649C29.0835 14.0629 29.9992 15.2156 30.7293 16.4846C30.7894 16.5832 30.8498 16.6824 30.9111 16.7824C30.9319 16.8161 30.9536 16.8506 30.9747 16.8845C31.0177 16.9537 31.0607 17.023 31.1052 17.0931C31.1314 17.1344 31.159 17.1763 31.1858 17.2179C31.2277 17.2831 31.2702 17.3484 31.3146 17.4151C31.3443 17.4595 31.3753 17.5051 31.4064 17.5505C31.4506 17.6154 31.4962 17.6813 31.5432 17.7479C31.5774 17.7961 31.6127 17.8451 31.6483 17.8944C31.6968 17.9608 31.7467 18.0284 31.7985 18.0968C31.8376 18.1483 31.8775 18.2008 31.9185 18.2535C31.9724 18.3227 32.0294 18.3937 32.0872 18.4652C32.1314 18.5199 32.1755 18.5747 32.2226 18.6308C32.2836 18.7043 32.3491 18.7801 32.4149 18.8562C32.4656 18.9146 32.5149 18.9725 32.5682 19.0323C32.5813 19.0471 32.5925 19.0608 32.6059 19.0756C32.5016 19.2107 32.389 19.3395 32.2687 19.4609C32.0801 19.6479 31.8749 19.8177 31.6557 19.9685L31.6355 19.9462C31.5982 19.9038 31.5648 19.8636 31.5292 19.8223C31.4617 19.7439 31.3944 19.6661 31.3323 19.5909C31.2938 19.5441 31.2579 19.4991 31.2212 19.4535C31.1673 19.3863 31.114 19.3196 31.0639 19.2546C31.0279 19.2082 30.9937 19.1628 30.9595 19.1173C30.9131 19.0554 30.8678 18.9941 30.8242 18.9337C30.792 18.8896 30.7606 18.8457 30.7301 18.8021C30.6874 18.7414 30.6458 18.6812 30.6056 18.6217C30.578 18.5809 30.55 18.5402 30.5233 18.4997C30.4825 18.4379 30.4426 18.3766 30.4033 18.3156C30.3793 18.2786 30.3551 18.2412 30.3317 18.2042C30.2896 18.1378 30.2485 18.0717 30.2078 18.0058C30.1884 17.9748 30.1687 17.9434 30.1496 17.9121C30.0918 17.818 30.0342 17.724 29.977 17.6297C29.1944 16.276 28.2164 15.0455 27.0745 13.978C25.9739 12.8703 24.7146 11.9321 23.3384 11.1946C22.0486 10.5061 20.8697 9.62782 19.8406 8.58937C18.7703 7.59167 17.8552 6.43951 17.1257 5.17136C17.0356 5.02346 16.9436 4.87356 16.8495 4.72196C16.8296 4.69004 16.8099 4.65812 16.7897 4.62592C16.6936 4.47317 16.5916 4.317 16.4836 4.15685C16.4611 4.12322 16.438 4.08959 16.4146 4.05568C16.3021 3.89182 16.181 3.72311 16.0482 3.54728C16.0259 3.51822 16.002 3.48801 15.9795 3.45866C15.8356 3.27143 15.6814 3.07878 15.5064 2.87417L15.5019 2.86847C15.5301 2.83769 15.5583 2.80805 15.5871 2.77927ZM18.5052 16.5448C14.4603 12.4995 12.9322 7.09695 14.7926 3.84109C14.8065 3.85819 14.8213 3.87558 14.835 3.89239C14.9604 4.04685 15.0775 4.19617 15.1844 4.34009C15.2046 4.36716 15.2229 4.39338 15.2425 4.42017C15.3389 4.55211 15.4295 4.68092 15.5144 4.80659C15.5295 4.82939 15.5457 4.85219 15.5606 4.8747C15.6543 5.0152 15.7427 5.15313 15.8284 5.2902C15.8473 5.32012 15.8655 5.34976 15.884 5.3794C15.9661 5.51191 16.047 5.64414 16.1282 5.77779C16.9096 7.13029 17.8868 8.36025 19.0279 9.4272C20.1285 10.5346 21.3878 11.4728 22.7639 12.2103C24.0537 12.8991 25.2327 13.7771 26.2617 14.8155C27.3329 15.8141 28.2491 16.9671 28.9798 18.2361C29.0696 18.3837 29.1613 18.5328 29.2551 18.6838C29.277 18.7191 29.2987 18.7542 29.3212 18.7895C29.419 18.9446 29.5218 19.103 29.6321 19.2657C29.6544 19.2985 29.678 19.3321 29.7008 19.3655C29.8151 19.531 29.9362 19.7009 30.0716 19.879L30.0889 19.9029C30.2263 20.0828 30.3819 20.2731 30.5478 20.4695C30.5691 20.4945 30.5848 20.5168 30.6067 20.5424C27.2939 21.9134 22.2504 20.2891 18.5052 16.5448ZM12.8399 18.7083C18.5676 18.7083 23.4233 21.4333 24.3433 25.0317C24.3205 25.0291 24.2971 25.0268 24.2749 25.0245C24.0628 25.0009 23.8611 24.9747 23.673 24.9447C23.6479 24.9407 23.6245 24.9362 23.5997 24.9322C23.4268 24.9037 23.2618 24.8726 23.103 24.8399C23.0714 24.8333 23.0386 24.8273 23.0076 24.8205C22.8403 24.7849 22.6787 24.7472 22.52 24.7085C22.4784 24.6982 22.4365 24.688 22.3952 24.6774C22.2438 24.6395 22.0936 24.6013 21.9423 24.562C20.4377 24.1351 18.878 23.9325 17.314 23.961C15.7521 23.9322 14.1944 24.1351 12.692 24.5634C11.2859 24.967 9.82713 25.1573 8.36463 25.1283C6.90127 25.1573 5.44191 24.967 4.03498 24.5637C3.8905 24.5261 3.7443 24.4885 3.59612 24.4512C3.55565 24.4409 3.51518 24.4309 3.47415 24.4207C3.31627 24.3816 3.1544 24.3434 2.9857 24.3067C2.95919 24.3007 2.93127 24.2953 2.90419 24.2896C2.74831 24.2565 2.58559 24.2249 2.41603 24.195C2.38468 24.1895 2.35476 24.1836 2.32284 24.1781C2.13561 24.1465 1.93698 24.118 1.72838 24.0918C1.70729 24.0892 1.68962 24.0858 1.66825 24.0833C3.145 20.9303 7.68154 18.7083 12.8399 18.7083ZM1.28211 25.2149L1.30405 25.2175C1.52975 25.2405 1.73807 25.2685 1.9367 25.2987C1.96491 25.3032 1.99483 25.3069 2.02276 25.3115C2.21427 25.3423 2.39437 25.3759 2.56849 25.4118C2.60354 25.4189 2.63888 25.4261 2.67336 25.4338C2.8415 25.4697 3.00422 25.507 3.16352 25.546C3.20028 25.5552 3.23648 25.5643 3.27295 25.5734C3.42941 25.6127 3.58472 25.6526 3.74089 25.6934C5.24385 26.1211 6.8021 26.324 8.36463 26.2955C9.92658 26.3243 11.4843 26.1211 12.9867 25.6931C14.3927 25.2893 15.8515 25.0989 17.314 25.1283C18.7791 25.0992 20.2402 25.2893 21.6491 25.6919C21.7525 25.7187 21.8565 25.7455 21.9614 25.7723C22.0013 25.7826 22.0421 25.7925 22.0823 25.8025C22.1541 25.8208 22.2262 25.8387 22.2997 25.8564C22.3424 25.8666 22.3866 25.8769 22.4302 25.8872C22.5029 25.9043 22.5764 25.9211 22.6513 25.9376C22.6978 25.9479 22.7451 25.9578 22.7927 25.9678C22.8674 25.9838 22.9437 25.9991 23.0215 26.0143C23.0717 26.0239 23.1224 26.0336 23.1737 26.043C23.2541 26.0576 23.337 26.0718 23.4208 26.0855C23.4732 26.094 23.5254 26.1026 23.5792 26.1109C23.6699 26.1248 23.7645 26.1374 23.8602 26.1502C23.9118 26.157 23.9622 26.1642 24.0158 26.1704C24.1275 26.1838 24.2446 26.1958 24.3638 26.2075C24.4068 26.2115 24.447 26.2163 24.4912 26.2203L24.5122 26.2226C24.5125 26.236 24.5125 26.2496 24.5125 26.263C24.5114 26.6375 24.4669 27.0105 24.38 27.3747L24.3564 27.3719C24.1346 27.3488 23.93 27.3212 23.7345 27.2912C23.7043 27.2864 23.6727 27.2824 23.6431 27.2776C23.4547 27.2471 23.2772 27.2137 23.1059 27.1784C23.0688 27.171 23.0321 27.1633 22.9956 27.1556C22.8303 27.12 22.6696 27.0829 22.5126 27.0444C22.4747 27.035 22.437 27.0253 22.3994 27.0159C22.245 26.9772 22.0919 26.9379 21.9375 26.8977C20.4345 26.4696 18.8766 26.2667 17.314 26.2955C15.7521 26.2667 14.1944 26.4696 12.692 26.898C11.2859 27.3015 9.82713 27.4919 8.36463 27.4628C6.89985 27.4916 5.43877 27.3015 4.03014 26.8991C3.92441 26.8717 3.81811 26.8441 3.71096 26.8167C3.67933 26.8088 3.64656 26.8008 3.61436 26.7925C3.53713 26.7731 3.45933 26.7538 3.37982 26.7344C3.33593 26.7238 3.29062 26.7136 3.24588 26.703C3.17578 26.6865 3.1051 26.6703 3.033 26.6543C2.98342 26.6432 2.93241 26.6327 2.8814 26.6218C2.81101 26.607 2.73919 26.5925 2.66624 26.5782C2.61152 26.5674 2.55624 26.5571 2.49981 26.5469C2.42629 26.5335 2.35049 26.5207 2.27383 26.5078C2.21455 26.4981 2.15528 26.4882 2.09372 26.479C2.01478 26.4668 1.93214 26.4557 1.84921 26.4449C1.78538 26.4363 1.7224 26.4275 1.65628 26.4195C1.56481 26.4087 1.46848 26.399 1.37216 26.3893C1.30947 26.383 1.24934 26.3759 1.18408 26.3702L1.16926 26.3688C1.16812 26.3334 1.16726 26.2981 1.16726 26.263C1.16783 25.9105 1.20631 25.5591 1.28211 25.2149Z" fill="black"/>
<path d="M6.6884 30.1178C6.44845 29.9939 6.22047 29.8636 6.00446 29.7271C5.73174 29.5564 5.37238 29.6388 5.20111 29.9109C5.02984 30.1831 5.11106 30.5427 5.38264 30.7149C5.62544 30.8679 5.88164 31.0144 6.15151 31.1546C6.43791 31.3028 6.79014 31.1908 6.93833 30.9047C7.08652 30.6183 6.97481 30.266 6.6884 30.1178Z" fill="black"/>
<path d="M20.4496 29.1678C18.6255 30.6394 15.8518 31.4832 12.8399 31.4832C11.3175 31.4955 9.8029 31.2678 8.35151 30.8084C8.04545 30.7092 7.71687 30.8768 7.61713 31.1828C7.51739 31.4889 7.68438 31.8178 7.99016 31.9181C9.5581 32.4157 11.1947 32.6627 12.8399 32.6505C16.1137 32.6505 19.1544 31.7123 21.1826 30.0763C21.4334 29.8737 21.4727 29.5063 21.2703 29.2556C21.068 29.0045 20.7004 28.9652 20.4496 29.1678Z" fill="black"/>
<path d="M16.6894 9.21285C16.625 8.98288 16.5702 8.75575 16.5255 8.53176C16.4622 8.21572 16.1547 8.01082 15.8387 8.07409C15.5227 8.13735 15.3178 8.44484 15.381 8.76088C15.4315 9.01252 15.493 9.26785 15.5654 9.52747C15.6523 9.83781 15.9744 10.0188 16.2847 9.93213C16.595 9.84522 16.7763 9.52319 16.6894 9.21285Z" fill="black"/>
<path d="M28.1331 19.2919C28.1531 18.9702 27.9083 18.6932 27.5866 18.6735C25.1865 18.5256 22.3393 17.0774 20.1561 14.8939C19.0569 13.8081 18.1422 12.5502 17.4482 11.1698C17.3046 10.8817 16.9552 10.7643 16.6668 10.9071C16.3784 11.0498 16.2602 11.3992 16.4024 11.6879C17.1527 13.182 18.1419 14.5436 19.3308 15.7192C21.7428 18.1315 24.8023 19.6715 27.5147 19.8385C27.527 19.8394 27.5392 19.8397 27.5512 19.8397C27.8593 19.8391 28.114 19.5994 28.1331 19.2919Z" fill="black"/>
</g>
<path d="M34.876 35.18C33.988 35.18 33.24 34.82 32.632 34.1C32.024 33.38 31.72 32.332 31.72 30.956C31.72 29.94 31.884 29.016 32.212 28.184C32.54 27.344 33.052 26.66 33.748 26.132C34.452 25.596 35.244 25.328 36.124 25.328C37.004 25.328 37.644 25.544 38.044 25.976C38.444 26.4 38.644 26.888 38.644 27.44C38.644 27.992 38.504 28.436 38.224 28.772C37.944 29.1 37.58 29.264 37.132 29.264C36.988 29.264 36.812 29.232 36.604 29.168C36.788 28.976 36.948 28.708 37.084 28.364C37.228 28.012 37.3 27.66 37.3 27.308C37.3 26.956 37.204 26.656 37.012 26.408C36.828 26.152 36.532 26.024 36.124 26.024C35.508 26.024 34.956 26.28 34.468 26.792C33.988 27.296 33.624 27.92 33.376 28.664C33.136 29.4 33.016 30.16 33.016 30.944C33.016 32.048 33.228 32.876 33.652 33.428C34.076 33.972 34.624 34.244 35.296 34.244C35.744 34.244 36.204 34.108 36.676 33.836C37.148 33.564 37.536 33.172 37.84 32.66C37.96 32.66 38.072 32.696 38.176 32.768C38.28 32.84 38.332 32.912 38.332 32.984C37.884 33.832 37.32 34.42 36.64 34.748C36.048 35.036 35.46 35.18 34.876 35.18ZM44.4519 31.064C44.4519 30.28 44.3519 29.72 44.1519 29.384C43.9599 29.04 43.6799 28.868 43.3119 28.868C42.9519 28.868 42.5879 29.048 42.2199 29.408C41.8519 29.76 41.5599 30.2 41.3439 30.728C41.1359 31.248 41.0319 31.792 41.0319 32.36C41.0319 32.92 41.1399 33.408 41.3559 33.824C41.5719 34.232 41.8999 34.436 42.3399 34.436C42.9639 34.436 43.4719 34.068 43.8639 33.332C44.2559 32.596 44.4519 31.84 44.4519 31.064ZM40.9719 30.596C41.2759 29.732 41.6839 29.104 42.1959 28.712C42.7159 28.312 43.2399 28.112 43.7679 28.112C44.3039 28.112 44.7479 28.348 45.0999 28.82C45.4519 29.284 45.6279 29.916 45.6279 30.716C45.6279 31.596 45.4599 32.412 45.1239 33.164C44.7479 33.996 44.2039 34.576 43.4919 34.904C43.1079 35.088 42.6839 35.18 42.2199 35.18C41.5719 35.18 41.0039 34.912 40.5159 34.376C40.0279 33.832 39.7839 33.06 39.7839 32.06C39.7839 31.052 39.9999 30.18 40.4319 29.444C40.8639 28.708 41.4519 28.196 42.1959 27.908C42.3559 27.908 42.4359 27.988 42.4359 28.148C41.6439 28.668 41.1559 29.484 40.9719 30.596ZM51.1622 28.424C51.1622 28.76 51.0982 28.992 50.9702 29.12C50.8422 29.248 50.6542 29.312 50.4062 29.312H49.3982C49.1262 31.04 48.9902 32.684 48.9902 34.244C48.9902 34.716 48.9982 35.056 49.0142 35.264C49.0382 35.48 49.0942 35.844 49.1822 36.356C48.2782 35.996 47.8262 35.172 47.8262 33.884C47.8262 32.436 47.9742 30.936 48.2702 29.384C47.8702 29.448 47.4582 29.568 47.0342 29.744C47.0182 29.616 47.0102 29.5 47.0102 29.396C47.0102 29.012 47.1342 28.756 47.3822 28.628C47.6382 28.492 48.0022 28.424 48.4742 28.424C49.1622 25.608 50.2222 24.2 51.6542 24.2C52.1262 24.2 52.5142 24.332 52.8182 24.596C53.1222 24.86 53.2742 25.176 53.2742 25.544C53.2742 25.912 53.1662 26.224 52.9502 26.48C52.7342 26.728 52.4502 26.852 52.0982 26.852C51.9542 26.852 51.8222 26.824 51.7022 26.768C51.7982 26.68 51.8942 26.536 51.9902 26.336C52.0942 26.128 52.1462 25.916 52.1462 25.7C52.1462 25.476 52.0862 25.288 51.9662 25.136C51.8542 24.984 51.7062 24.908 51.5222 24.908C50.6742 24.908 50.0142 26.092 49.5422 28.46C50.3182 28.46 50.8502 28.344 51.1382 28.112C51.1542 28.224 51.1622 28.328 51.1622 28.424ZM56.0606 28.424C56.0606 28.76 55.9966 28.992 55.8686 29.12C55.7406 29.248 55.5526 29.312 55.3046 29.312H54.2966C54.0246 31.04 53.8886 32.684 53.8886 34.244C53.8886 34.716 53.8966 35.056 53.9126 35.264C53.9366 35.48 53.9926 35.844 54.0806 36.356C53.1766 35.996 52.7246 35.172 52.7246 33.884C52.7246 32.436 52.8726 30.936 53.1686 29.384C52.7686 29.448 52.3566 29.568 51.9326 29.744C51.9166 29.616 51.9086 29.5 51.9086 29.396C51.9086 29.012 52.0326 28.756 52.2806 28.628C52.5366 28.492 52.9006 28.424 53.3726 28.424C54.0606 25.608 55.1206 24.2 56.5526 24.2C57.0246 24.2 57.4126 24.332 57.7166 24.596C58.0206 24.86 58.1726 25.176 58.1726 25.544C58.1726 25.912 58.0646 26.224 57.8486 26.48C57.6326 26.728 57.3486 26.852 56.9966 26.852C56.8526 26.852 56.7206 26.824 56.6006 26.768C56.6966 26.68 56.7926 26.536 56.8886 26.336C56.9926 26.128 57.0446 25.916 57.0446 25.7C57.0446 25.476 56.9846 25.288 56.8646 25.136C56.7526 24.984 56.6046 24.908 56.4206 24.908C55.5726 24.908 54.9126 26.092 54.4406 28.46C55.2166 28.46 55.7486 28.344 56.0366 28.112C56.0526 28.224 56.0606 28.328 56.0606 28.424ZM59.8398 28.7C59.3598 28.7 58.9518 28.976 58.6158 29.528C58.2878 30.08 58.0678 30.728 57.9558 31.472H58.2918C58.7158 31.472 59.0838 31.412 59.3958 31.292C59.7078 31.172 59.9478 31.016 60.1158 30.824C60.4358 30.456 60.5958 30.04 60.5958 29.576C60.5958 29.312 60.5318 29.1 60.4038 28.94C60.2838 28.78 60.0958 28.7 59.8398 28.7ZM61.5318 33.56C61.1638 34.16 60.7598 34.58 60.3198 34.82C59.8798 35.06 59.3678 35.18 58.7838 35.18C58.2078 35.18 57.7038 34.924 57.2718 34.412C56.8398 33.9 56.6238 33.18 56.6238 32.252C56.6238 31.196 56.9078 30.252 57.4758 29.42C57.7558 29.02 58.1198 28.696 58.5678 28.448C59.0238 28.2 59.5238 28.076 60.0678 28.076C61.2678 28.076 61.8678 28.656 61.8678 29.816C61.8678 30.512 61.5958 31.06 61.0518 31.46C60.5158 31.852 59.8918 32.048 59.1798 32.048C58.7078 32.048 58.2838 32.004 57.9078 31.916C57.8998 31.996 57.8958 32.12 57.8958 32.288C57.8958 33.704 58.3158 34.412 59.1558 34.412C59.9478 34.412 60.5918 34.02 61.0878 33.236C61.3838 33.276 61.5318 33.384 61.5318 33.56ZM66.3437 28.7C65.8637 28.7 65.4557 28.976 65.1197 29.528C64.7917 30.08 64.5717 30.728 64.4597 31.472H64.7957C65.2197 31.472 65.5877 31.412 65.8997 31.292C66.2117 31.172 66.4517 31.016 66.6197 30.824C66.9397 30.456 67.0997 30.04 67.0997 29.576C67.0997 29.312 67.0357 29.1 66.9077 28.94C66.7877 28.78 66.5997 28.7 66.3437 28.7ZM68.0357 33.56C67.6677 34.16 67.2637 34.58 66.8237 34.82C66.3837 35.06 65.8717 35.18 65.2877 35.18C64.7117 35.18 64.2077 34.924 63.7757 34.412C63.3437 33.9 63.1277 33.18 63.1277 32.252C63.1277 31.196 63.4117 30.252 63.9797 29.42C64.2597 29.02 64.6237 28.696 65.0717 28.448C65.5277 28.2 66.0277 28.076 66.5717 28.076C67.7717 28.076 68.3717 28.656 68.3717 29.816C68.3717 30.512 68.0997 31.06 67.5557 31.46C67.0197 31.852 66.3957 32.048 65.6837 32.048C65.2117 32.048 64.7877 32.004 64.4117 31.916C64.4037 31.996 64.3997 32.12 64.3997 32.288C64.3997 33.704 64.8197 34.412 65.6597 34.412C66.4517 34.412 67.0957 34.02 67.5917 33.236C67.8877 33.276 68.0357 33.384 68.0357 33.56ZM75.1885 31.292C75.4525 30.388 75.8565 29.628 76.4005 29.012C76.9525 28.388 77.4685 28.076 77.9485 28.076C78.4285 28.076 78.7685 28.224 78.9685 28.52C79.1685 28.808 79.2685 29.204 79.2685 29.708C79.2685 30.204 79.1885 30.904 79.0285 31.808C78.8765 32.712 78.8005 33.372 78.8005 33.788C78.8005 34.196 78.8525 34.496 78.9565 34.688C79.0605 34.872 79.2365 35.032 79.4845 35.168C79.3805 35.176 79.2325 35.18 79.0405 35.18C78.5285 35.18 78.1485 35.076 77.9005 34.868C77.6605 34.652 77.5405 34.288 77.5405 33.776C77.5405 33.48 77.6205 32.884 77.7805 31.988C77.9405 31.084 78.0205 30.42 78.0205 29.996C78.0205 29.468 77.8365 29.204 77.4685 29.204C77.2525 29.204 77.0125 29.32 76.7485 29.552C76.4845 29.776 76.2285 30.084 75.9805 30.476C75.7405 30.86 75.5365 31.352 75.3685 31.952C75.2085 32.544 75.1285 33.132 75.1285 33.716C75.1285 34.292 75.1525 34.72 75.2005 35C75.0085 35.016 74.9005 35.024 74.8765 35.024C74.5005 35.024 74.2205 34.944 74.0365 34.784C73.8605 34.624 73.7725 34.376 73.7725 34.04C73.7725 33.696 73.8445 33.04 73.9885 32.072C74.4125 29.096 74.6245 26.836 74.6245 25.292C74.6245 24.596 74.5765 24.128 74.4805 23.888C74.9445 24.056 75.2685 24.304 75.4525 24.632C75.6445 24.96 75.7405 25.412 75.7405 25.988C75.7405 26.388 75.6605 27.228 75.5005 28.508C75.3485 29.788 75.2445 30.716 75.1885 31.292ZM85.7136 31.064C85.7136 30.28 85.6136 29.72 85.4136 29.384C85.2216 29.04 84.9416 28.868 84.5736 28.868C84.2136 28.868 83.8496 29.048 83.4816 29.408C83.1136 29.76 82.8216 30.2 82.6056 30.728C82.3976 31.248 82.2936 31.792 82.2936 32.36C82.2936 32.92 82.4016 33.408 82.6176 33.824C82.8336 34.232 83.1616 34.436 83.6016 34.436C84.2256 34.436 84.7336 34.068 85.1256 33.332C85.5176 32.596 85.7136 31.84 85.7136 31.064ZM82.2336 30.596C82.5376 29.732 82.9456 29.104 83.4576 28.712C83.9776 28.312 84.5016 28.112 85.0296 28.112C85.5656 28.112 86.0096 28.348 86.3616 28.82C86.7136 29.284 86.8896 29.916 86.8896 30.716C86.8896 31.596 86.7216 32.412 86.3856 33.164C86.0096 33.996 85.4656 34.576 84.7536 34.904C84.3696 35.088 83.9456 35.18 83.4816 35.18C82.8336 35.18 82.2656 34.912 81.7776 34.376C81.2896 33.832 81.0456 33.06 81.0456 32.06C81.0456 31.052 81.2616 30.18 81.6936 29.444C82.1256 28.708 82.7136 28.196 83.4576 27.908C83.6176 27.908 83.6976 27.988 83.6976 28.148C82.9056 28.668 82.4176 29.484 82.2336 30.596ZM92.9519 28.052C93.6399 28.052 93.9839 28.408 93.9839 29.12C93.9839 29.248 93.9079 29.812 93.7559 30.812C93.6039 31.804 93.5279 32.656 93.5279 33.368C93.5279 34.08 93.6039 34.708 93.7559 35.252C93.2679 35.06 92.9279 34.788 92.7359 34.436C92.5519 34.084 92.4599 33.648 92.4599 33.128C92.4599 32.928 92.5039 32.476 92.5919 31.772C92.3519 32.684 91.9799 33.452 91.4759 34.076C90.9719 34.692 90.5039 35 90.0719 35C89.1599 35 88.7039 34.336 88.7039 33.008C88.7039 32.568 88.7679 31.956 88.8959 31.172C89.0319 30.38 89.0999 29.78 89.0999 29.372C89.0999 28.964 89.0439 28.552 88.9319 28.136C89.4439 28.136 89.8279 28.224 90.0839 28.4C90.3399 28.576 90.4679 28.916 90.4679 29.42C90.4679 29.692 90.3839 30.252 90.2159 31.1C90.0479 31.948 89.9639 32.576 89.9639 32.984C89.9639 33.576 90.1479 33.872 90.5159 33.872C90.8199 33.872 91.1359 33.636 91.4639 33.164C91.7999 32.684 92.0799 32.064 92.3039 31.304C92.5279 30.544 92.6399 29.792 92.6399 29.048C92.6399 28.712 92.6159 28.388 92.5679 28.076C92.7439 28.06 92.8719 28.052 92.9519 28.052ZM98.3452 28.664C98.0812 28.664 97.8412 28.748 97.6252 28.916C97.4172 29.084 97.3132 29.316 97.3132 29.612C97.3132 29.9 97.4092 30.172 97.6012 30.428C97.8012 30.684 98.0412 30.912 98.3212 31.112C98.6012 31.312 98.8852 31.516 99.1732 31.724C99.8452 32.22 100.181 32.752 100.181 33.32C100.181 33.888 99.9532 34.352 99.4972 34.712C99.0412 35.064 98.4572 35.24 97.7452 35.24C97.0412 35.24 96.4932 35.1 96.1012 34.82C95.7172 34.54 95.5252 34.212 95.5252 33.836C95.5252 33.452 95.6212 33.152 95.8132 32.936C96.0052 32.72 96.2372 32.612 96.5092 32.612C96.6532 32.612 96.7892 32.644 96.9172 32.708C96.7412 32.932 96.6532 33.196 96.6532 33.5C96.6532 33.804 96.7452 34.06 96.9292 34.268C97.1212 34.476 97.3812 34.58 97.7092 34.58C98.0452 34.58 98.3292 34.496 98.5612 34.328C98.7932 34.152 98.9092 33.932 98.9092 33.668C98.9092 33.404 98.8412 33.172 98.7052 32.972C98.5692 32.772 98.3972 32.6 98.1892 32.456C97.9892 32.312 97.7692 32.152 97.5292 31.976C97.2892 31.8 97.0652 31.628 96.8572 31.46C96.6572 31.284 96.4892 31.068 96.3532 30.812C96.2172 30.548 96.1492 30.26 96.1492 29.948C96.1492 29.38 96.3652 28.916 96.7972 28.556C97.2292 28.188 97.7732 28.004 98.4292 28.004C99.0852 28.004 99.5652 28.14 99.8692 28.412C100.173 28.684 100.325 28.992 100.325 29.336C100.325 29.672 100.241 29.952 100.073 30.176C99.9052 30.392 99.6892 30.5 99.4252 30.5C99.2972 30.5 99.1492 30.464 98.9812 30.392C99.1892 30.136 99.2932 29.86 99.2932 29.564C99.2932 29.268 99.2012 29.044 99.0172 28.892C98.8412 28.74 98.6172 28.664 98.3452 28.664ZM104.969 28.7C104.489 28.7 104.081 28.976 103.745 29.528C103.417 30.08 103.197 30.728 103.085 31.472H103.421C103.845 31.472 104.213 31.412 104.525 31.292C104.837 31.172 105.077 31.016 105.245 30.824C105.565 30.456 105.725 30.04 105.725 29.576C105.725 29.312 105.661 29.1 105.533 28.94C105.413 28.78 105.225 28.7 104.969 28.7ZM106.661 33.56C106.293 34.16 105.889 34.58 105.449 34.82C105.009 35.06 104.497 35.18 103.913 35.18C103.337 35.18 102.833 34.924 102.401 34.412C101.969 33.9 101.753 33.18 101.753 32.252C101.753 31.196 102.037 30.252 102.605 29.42C102.885 29.02 103.249 28.696 103.697 28.448C104.153 28.2 104.653 28.076 105.197 28.076C106.397 28.076 106.997 28.656 106.997 29.816C106.997 30.512 106.725 31.06 106.181 31.46C105.645 31.852 105.021 32.048 104.309 32.048C103.837 32.048 103.413 32.004 103.037 31.916C103.029 31.996 103.025 32.12 103.025 32.288C103.025 33.704 103.445 34.412 104.285 34.412C105.077 34.412 105.721 34.02 106.217 33.236C106.513 33.276 106.661 33.384 106.661 33.56Z" fill="black"/>
<defs>
<clipPath id="clip0">
<rect width="35" height="35" fill="white"/>
</clipPath>
</defs>
</svg>
